<?xml version="1.0" encoding="UTF-8"?>
<svg id="Capa_2" data-name="Capa 2" xmlns="http://www.w3.org/2000/svg" viewBox="0 0 726.84 114.93">
  <defs>
    <style>
      .cls-1 {
        fill: #fff;
        stroke-width: 0px;
      }
    </style>
  </defs>
  <g id="Capa_1-2" data-name="Capa 1">
    <g>
      <g>
        <path class="cls-1" d="M19.77,70.72c-.91-.07-2.06-.13-3.46-.19-1.4-.06-2.94-.1-4.63-.1l-6.62.1c-1.17.07-2.79.1-4.87.1-.13,0-.19-.2-.19-.58s.06-.58.19-.58c2.47,0,4.27-.16,5.41-.49,1.13-.32,1.91-.96,2.34-1.9.42-.94.63-2.39.63-4.33V17.63c0-1.95-.19-3.38-.58-4.29-.39-.91-1.15-1.54-2.29-1.9-1.14-.36-2.94-.54-5.41-.54-.13,0-.2-.19-.2-.58s.06-.58.2-.58l4.87.1c2.73.13,4.9.19,6.53.19,2.47,0,4.9-.1,7.31-.29,2.86-.13,4.84-.2,5.94-.2,6.75,0,12.74,1.3,17.97,3.9,5.23,2.6,9.27,6.14,12.13,10.62,2.86,4.48,4.29,9.51,4.29,15.1,0,6.3-1.48,11.87-4.43,16.71-2.96,4.84-6.96,8.57-12.03,11.2s-10.58,3.94-16.56,3.94c-1.88,0-4.06-.1-6.53-.29ZM39.16,66.29c4.03-2.17,7.16-5.39,9.4-9.64,2.24-4.25,3.36-9.37,3.36-15.34,0-5.65-1.07-10.78-3.21-15.39-2.14-4.61-5.2-8.25-9.16-10.91-3.96-2.66-8.54-3.99-13.73-3.99-2.79,0-4.95.16-6.48.49-1.53.33-2.65.97-3.36,1.95-.72.97-1.07,2.43-1.07,4.38v43.83c0,1.95.28,3.47.83,4.58.55,1.1,1.59,1.93,3.12,2.48,1.53.55,3.68.83,6.48.83,5.19,0,9.8-1.09,13.83-3.26Z"/>
        <path class="cls-1" d="M94.97,33.31c1.3.78,1.95,1.72,1.95,2.82,0,.84-.28,1.56-.83,2.14-.55.58-1.35.88-2.39.88-.58,0-1.09-.11-1.51-.34-.42-.23-.92-.57-1.51-1.02-.58-.52-1.14-.91-1.66-1.17-.52-.26-1.14-.39-1.85-.39-.84,0-1.74.36-2.68,1.07-.94.72-2.42,2.24-4.43,4.58v20.84c0,1.95.24,3.38.73,4.29.49.91,1.38,1.54,2.68,1.9,1.3.36,3.31.54,6.04.54.26,0,.39.2.39.58s-.13.58-.39.58c-2.08,0-3.73-.03-4.97-.1l-7.21-.1-5.36.1c-.84.07-2.01.1-3.51.1-.19,0-.29-.2-.29-.58s.1-.58.29-.58c1.75,0,3.05-.18,3.9-.54.84-.36,1.41-.99,1.71-1.9.29-.91.44-2.34.44-4.29v-19.29c0-2.21-.26-3.8-.78-4.77-.52-.97-1.4-1.46-2.63-1.46-1.04,0-2.79.49-5.26,1.46h-.19c-.26,0-.44-.15-.54-.44-.1-.29-.02-.5.24-.63l11.3-5.36.58-.1c.58,0,1.2.75,1.85,2.24.65,1.5.97,3.41.97,5.75v.1c2.66-3.12,4.77-5.24,6.33-6.38,1.56-1.13,3.05-1.71,4.48-1.71s2.79.39,4.09,1.17Z"/>
        <path class="cls-1" d="M102.67,70.52c-.78-.78-1.17-1.82-1.17-3.12,0-1.23.39-2.21,1.17-2.92s1.82-1.07,3.12-1.07c1.36,0,2.42.36,3.17,1.07.75.71,1.12,1.69,1.12,2.92,0,1.3-.37,2.34-1.12,3.12-.75.78-1.8,1.17-3.17,1.17s-2.34-.39-3.12-1.17Z"/>
        <path class="cls-1" d="M184.78,55.91c.2,0,.37.03.54.1.16.07.24.16.24.29-.58,4.09-.88,8.38-.88,12.86,0,.52-.11.89-.34,1.12s-.63.34-1.22.34h-40.81c-.13,0-.19-.2-.19-.58s.06-.58.19-.58c2.47,0,4.27-.16,5.41-.49,1.13-.32,1.91-.96,2.34-1.9.42-.94.63-2.39.63-4.33V17.63c0-1.95-.21-3.38-.63-4.29-.42-.91-1.2-1.54-2.34-1.9-1.14-.36-2.94-.54-5.41-.54-.13,0-.19-.19-.19-.58s.06-.58.19-.58h39.16c.58,0,.88.29.88.88l.19,11.98c0,.19-.16.31-.49.34-.33.03-.52-.05-.58-.24-.19-3.44-1.23-6.12-3.12-8.04-1.88-1.91-4.38-2.87-7.5-2.87h-5.94c-2.27,0-3.95.18-5.02.54-1.07.36-1.82.97-2.24,1.85-.42.88-.63,2.19-.63,3.95v19.77h11.88c3.12,0,5.34-.52,6.67-1.56,1.33-1.04,2-2.79,2-5.26,0-.13.2-.2.58-.2s.58.07.58.2l-.1,7.89c0,1.88.03,3.31.1,4.29l.1,4.67c0,.13-.19.19-.58.19s-.58-.06-.58-.19c0-2.86-.7-4.9-2.09-6.14-1.4-1.23-3.72-1.85-6.96-1.85h-11.59v22.4c0,1.82.2,3.15.58,3.99.39.84,1.1,1.43,2.14,1.75,1.04.33,2.66.49,4.87.49h7.79c3.12,0,5.71-1.1,7.79-3.31,2.08-2.21,3.47-5.26,4.19-9.16,0-.13.13-.2.39-.2Z"/>
        <path class="cls-1" d="M239.71,65.07c.26,0,.44.16.54.49.1.33.05.55-.15.68l-10.71,5.07c-.39.13-.65.19-.78.19-.84,0-1.56-.72-2.14-2.14-.58-1.43-.91-3.41-.97-5.94-2.4,2.53-4.92,4.58-7.55,6.14s-5.57,2.34-8.82,2.34c-2.73,0-5.25-.78-7.55-2.34-2.31-1.56-4.16-3.75-5.55-6.57-1.4-2.83-2.09-6.05-2.09-9.69,0-4.61,1.13-8.54,3.41-11.79,2.27-3.25,5.13-5.68,8.57-7.31,3.44-1.62,6.85-2.43,10.23-2.43s6.56.84,9.35,2.53V12.47c0-2.34-.24-4.03-.73-5.06s-1.32-1.56-2.48-1.56c-.84,0-2.34.46-4.48,1.36h-.19c-.26,0-.44-.15-.54-.44s-.05-.5.15-.63L229.58.1c.13-.06.29-.1.49-.1.13,0,.31.08.54.24.23.16.34.34.34.54v59.13c0,2.34.28,4.03.83,5.06.55,1.04,1.44,1.56,2.68,1.56,1.88,0,3.57-.45,5.07-1.36l.2-.1ZM219.45,66.67c2.01-1.14,4.03-2.74,6.04-4.82v-21.43c-1.56-2.14-3.28-3.8-5.16-4.97-1.88-1.17-4.16-1.75-6.82-1.75-4.09,0-7.32,1.45-9.69,4.33-2.37,2.89-3.56,7-3.56,12.32,0,3.57.55,6.72,1.66,9.45,1.1,2.73,2.61,4.84,4.53,6.33,1.92,1.49,4.07,2.24,6.48,2.24s4.51-.57,6.53-1.71Z"/>
        <path class="cls-1" d="M287.73,65.07c.26,0,.44.15.54.44s.02.5-.24.63l-11.4,5.36-.39.1c-.65,0-1.27-.75-1.85-2.24-.58-1.49-.88-3.44-.88-5.84v-.39c-2.53,2.86-5.07,4.95-7.6,6.28-2.53,1.33-5.16,2-7.89,2-3.25,0-5.78-1.02-7.6-3.07-1.82-2.05-2.73-5.02-2.73-8.91v-14.9c0-2.53-.23-4.37-.68-5.5-.46-1.13-1.2-1.7-2.24-1.7-.91,0-2.01.33-3.31.97h-.1c-.26,0-.46-.18-.58-.54-.13-.36-.07-.57.19-.63l10.81-4.87.39-.1c.19,0,.4.08.63.24.23.16.34.34.34.54v23.28c0,7.53,2.73,11.3,8.18,11.3,2.08,0,4.19-.54,6.33-1.61,2.14-1.07,4.09-2.55,5.84-4.43v-16.95c0-2.6-.21-4.45-.63-5.55-.42-1.1-1.19-1.66-2.29-1.66-.91,0-2.01.33-3.31.97h-.1c-.26,0-.44-.18-.54-.54-.1-.36-.02-.57.24-.63l10.81-4.87.29-.1c.2,0,.41.08.63.24s.34.34.34.54v27.27c0,2.21.26,3.8.78,4.77.52.97,1.4,1.46,2.63,1.46,1.1,0,2.82-.45,5.16-1.36h.19Z"/>
        <path class="cls-1" d="M328.74,65.36c.26,0,.42.15.49.44.06.29-.03.5-.29.63l-10.03,4.77c-.26.13-.52.2-.78.2-.84,0-1.59-.57-2.24-1.71-.65-1.13-1.07-2.68-1.27-4.63l-5.07,3.31c-1.62,1.04-3.05,1.79-4.29,2.24-1.23.45-2.53.68-3.9.68-2.4,0-4.27-.63-5.6-1.9-1.33-1.27-2-2.87-2-4.82s.78-3.64,2.34-5.07c1.56-1.43,4.12-2.79,7.69-4.09l10.71-3.99v-6.62c0-7.27-2.04-10.91-6.14-10.91-2.21,0-3.88.73-5.02,2.19-1.14,1.46-1.9,3.13-2.29,5.02-.19,1.17-.55,2.13-1.07,2.87-.52.75-1.4,1.12-2.63,1.12-1.04,0-1.83-.29-2.39-.88s-.83-1.27-.83-2.05c0-1.56,1.01-3.12,3.02-4.68,2.01-1.56,4.42-2.86,7.21-3.9,2.79-1.04,5.29-1.56,7.5-1.56,2.66,0,4.68.84,6.04,2.53,1.36,1.69,2.05,4.12,2.05,7.31v18.21c0,2.27.29,3.93.88,4.97.58,1.04,1.56,1.56,2.92,1.56,1.23,0,2.82-.42,4.77-1.27h.2ZM314.52,63.7v-10.91l-9.06,3.51c-1.82.72-3.13,1.54-3.95,2.48-.81.94-1.22,2.06-1.22,3.36,0,1.56.5,2.87,1.51,3.95,1.01,1.07,2.32,1.61,3.94,1.61,1.3,0,2.86-.52,4.68-1.56l4.09-2.44Z"/>
        <path class="cls-1" d="M360.01,33.31c1.3.78,1.95,1.72,1.95,2.82,0,.84-.28,1.56-.83,2.14-.55.58-1.35.88-2.39.88-.58,0-1.09-.11-1.51-.34-.42-.23-.92-.57-1.51-1.02-.58-.52-1.14-.91-1.66-1.17-.52-.26-1.14-.39-1.85-.39-.84,0-1.74.36-2.68,1.07-.94.72-2.42,2.24-4.43,4.58v20.84c0,1.95.24,3.38.73,4.29.49.91,1.38,1.54,2.68,1.9,1.3.36,3.31.54,6.04.54.26,0,.39.2.39.58s-.13.58-.39.58c-2.08,0-3.73-.03-4.97-.1l-7.21-.1-5.36.1c-.84.07-2.01.1-3.51.1-.19,0-.29-.2-.29-.58s.1-.58.29-.58c1.75,0,3.05-.18,3.9-.54.84-.36,1.41-.99,1.71-1.9.29-.91.44-2.34.44-4.29v-19.29c0-2.21-.26-3.8-.78-4.77-.52-.97-1.4-1.46-2.63-1.46-1.04,0-2.79.49-5.26,1.46h-.19c-.26,0-.44-.15-.54-.44-.1-.29-.02-.5.24-.63l11.3-5.36.58-.1c.58,0,1.2.75,1.85,2.24.65,1.5.97,3.41.97,5.75v.1c2.66-3.12,4.77-5.24,6.33-6.38,1.56-1.13,3.05-1.71,4.48-1.71s2.79.39,4.09,1.17Z"/>
        <path class="cls-1" d="M412.71,65.07c.26,0,.44.16.54.49.1.33.05.55-.15.68l-10.71,5.07c-.39.13-.65.19-.78.19-.84,0-1.56-.72-2.14-2.14-.58-1.43-.91-3.41-.97-5.94-2.4,2.53-4.92,4.58-7.55,6.14s-5.57,2.34-8.82,2.34c-2.73,0-5.25-.78-7.55-2.34-2.31-1.56-4.16-3.75-5.55-6.57-1.4-2.83-2.09-6.05-2.09-9.69,0-4.61,1.13-8.54,3.41-11.79,2.27-3.25,5.13-5.68,8.57-7.31,3.44-1.62,6.85-2.43,10.23-2.43s6.56.84,9.35,2.53V12.47c0-2.34-.24-4.03-.73-5.06s-1.32-1.56-2.48-1.56c-.84,0-2.34.46-4.48,1.36h-.19c-.26,0-.44-.15-.54-.44s-.05-.5.15-.63L402.58.1c.13-.06.29-.1.49-.1.13,0,.31.08.54.24.23.16.34.34.34.54v59.13c0,2.34.28,4.03.83,5.06.55,1.04,1.44,1.56,2.68,1.56,1.88,0,3.57-.45,5.07-1.36l.2-.1ZM392.45,66.67c2.01-1.14,4.03-2.74,6.04-4.82v-21.43c-1.56-2.14-3.28-3.8-5.16-4.97-1.88-1.17-4.16-1.75-6.82-1.75-4.09,0-7.32,1.45-9.69,4.33-2.37,2.89-3.56,7-3.56,12.32,0,3.57.55,6.72,1.66,9.45,1.1,2.73,2.61,4.84,4.53,6.33,1.92,1.49,4.07,2.24,6.48,2.24s4.51-.57,6.53-1.71Z"/>
        <path class="cls-1" d="M425.81,69.11c-2.89-1.85-5.11-4.35-6.67-7.5-1.56-3.15-2.34-6.58-2.34-10.28,0-4.22,1.02-7.81,3.07-10.76,2.04-2.95,4.67-5.16,7.89-6.62s6.48-2.19,9.79-2.19c3.83,0,7.17.94,10.03,2.82,2.86,1.88,5.05,4.37,6.58,7.45,1.52,3.09,2.29,6.35,2.29,9.79,0,4.03-.94,7.55-2.83,10.57-1.88,3.02-4.4,5.36-7.55,7.01-3.15,1.66-6.58,2.48-10.28,2.48s-7.1-.93-9.98-2.78ZM446.9,66.24c1.95-2.53,2.92-6.43,2.92-11.69,0-4.03-.67-7.63-2-10.81-1.33-3.18-3.17-5.66-5.5-7.45-2.34-1.79-5-2.68-7.99-2.68-3.51,0-6.22,1.27-8.13,3.8-1.92,2.53-2.87,6.17-2.87,10.91,0,3.96.65,7.6,1.95,10.91,1.3,3.31,3.12,5.94,5.45,7.89,2.34,1.95,4.97,2.92,7.89,2.92,3.57,0,6.33-1.27,8.28-3.8Z"/>
        <path class="cls-1" d="M527.5,41.45c3.15,3.02,4.72,6.77,4.72,11.25,0,3.44-.84,6.56-2.53,9.35-1.69,2.79-4.01,4.98-6.96,6.57-2.96,1.59-6.25,2.39-9.89,2.39-2.14,0-4.48-.1-7.01-.29-.91-.07-1.98-.13-3.21-.19-1.23-.06-2.6-.1-4.09-.1l-6.62.1c-1.17.07-2.83.1-4.97.1-.13,0-.19-.2-.19-.58s.06-.58.19-.58c2.4,0,4.19-.18,5.36-.54,1.17-.36,1.98-.99,2.44-1.9.45-.91.68-2.34.68-4.29V17.63c0-1.95-.21-3.38-.63-4.29-.42-.91-1.2-1.54-2.34-1.9-1.14-.36-2.91-.54-5.31-.54-.19,0-.29-.19-.29-.58s.1-.58.29-.58l4.77.1c2.73.13,4.93.19,6.62.19,1.17,0,2.25-.03,3.26-.1,1.01-.06,1.87-.13,2.58-.19,2.01-.2,3.9-.29,5.65-.29,5.46,0,9.55,1.19,12.27,3.56,2.73,2.37,4.09,5.47,4.09,9.3,0,3.12-1.01,5.89-3.02,8.33-2.01,2.44-4.77,4.33-8.28,5.7,5.13.39,9.27,2.09,12.42,5.11ZM504.17,11.35c-.84.29-1.46.91-1.85,1.85-.39.94-.58,2.48-.58,4.63v18.51l4.38.1c4.74,0,8.25-1.22,10.52-3.65,2.27-2.43,3.41-5.67,3.41-9.69,0-3.64-.99-6.57-2.97-8.81-1.98-2.24-5.02-3.36-9.11-3.36-1.69,0-2.96.15-3.8.44ZM521.95,65.6c2.3-2.43,3.46-5.92,3.46-10.47,0-4.93-1.45-8.93-4.33-11.98-2.89-3.05-6.87-4.61-11.93-4.68-2.08-.06-4.55,0-7.4.2v24.06c0,1.69.24,2.99.73,3.9.49.91,1.43,1.58,2.83,2,1.4.42,3.42.63,6.09.63,4.74,0,8.26-1.22,10.57-3.65Z"/>
        <path class="cls-1" d="M577.52,65.36c.26,0,.42.15.49.44.06.29-.03.5-.29.63l-10.03,4.77c-.26.13-.52.2-.78.2-.84,0-1.59-.57-2.24-1.71-.65-1.13-1.07-2.68-1.27-4.63l-5.07,3.31c-1.62,1.04-3.05,1.79-4.29,2.24-1.23.45-2.53.68-3.9.68-2.4,0-4.27-.63-5.6-1.9-1.33-1.27-2-2.87-2-4.82s.78-3.64,2.34-5.07c1.56-1.43,4.12-2.79,7.69-4.09l10.71-3.99v-6.62c0-7.27-2.04-10.91-6.14-10.91-2.21,0-3.88.73-5.02,2.19-1.14,1.46-1.9,3.13-2.29,5.02-.19,1.17-.55,2.13-1.07,2.87-.52.75-1.4,1.12-2.63,1.12-1.04,0-1.83-.29-2.39-.88s-.83-1.27-.83-2.05c0-1.56,1.01-3.12,3.02-4.68,2.01-1.56,4.42-2.86,7.21-3.9,2.79-1.04,5.29-1.56,7.5-1.56,2.66,0,4.68.84,6.04,2.53,1.36,1.69,2.05,4.12,2.05,7.31v18.21c0,2.27.29,3.93.88,4.97.58,1.04,1.56,1.56,2.92,1.56,1.23,0,2.82-.42,4.77-1.27h.2ZM563.29,63.7v-10.91l-9.06,3.51c-1.82.72-3.13,1.54-3.95,2.48-.81.94-1.22,2.06-1.22,3.36,0,1.56.5,2.87,1.51,3.95,1.01,1.07,2.32,1.61,3.94,1.61,1.3,0,2.86-.52,4.68-1.56l4.09-2.44Z"/>
        <path class="cls-1" d="M608.78,33.31c1.3.78,1.95,1.72,1.95,2.82,0,.84-.28,1.56-.83,2.14-.55.58-1.35.88-2.39.88-.58,0-1.09-.11-1.51-.34-.42-.23-.92-.57-1.51-1.02-.58-.52-1.14-.91-1.66-1.17-.52-.26-1.14-.39-1.85-.39-.84,0-1.74.36-2.68,1.07-.94.72-2.42,2.24-4.43,4.58v20.84c0,1.95.24,3.38.73,4.29.49.91,1.38,1.54,2.68,1.9,1.3.36,3.31.54,6.04.54.26,0,.39.2.39.58s-.13.58-.39.58c-2.08,0-3.73-.03-4.97-.1l-7.21-.1-5.36.1c-.84.07-2.01.1-3.51.1-.19,0-.29-.2-.29-.58s.1-.58.29-.58c1.75,0,3.05-.18,3.9-.54.84-.36,1.41-.99,1.71-1.9.29-.91.44-2.34.44-4.29v-19.29c0-2.21-.26-3.8-.78-4.77-.52-.97-1.4-1.46-2.63-1.46-1.04,0-2.79.49-5.26,1.46h-.19c-.26,0-.44-.15-.54-.44-.1-.29-.02-.5.24-.63l11.3-5.36.58-.1c.58,0,1.2.75,1.85,2.24.65,1.5.97,3.41.97,5.75v.1c2.66-3.12,4.77-5.24,6.33-6.38,1.56-1.13,3.05-1.71,4.48-1.71s2.79.39,4.09,1.17Z"/>
        <path class="cls-1" d="M624.08,69.01c-2.86-1.85-4.97-4.24-6.33-7.16-1.36-2.92-2.04-6.01-2.04-9.25,0-4.16,1.04-7.78,3.12-10.86,2.08-3.08,4.76-5.46,8.04-7.11,3.28-1.66,6.64-2.48,10.08-2.48,2.86,0,5.47.57,7.84,1.71,2.37,1.14,3.56,2.55,3.56,4.24,0,.84-.31,1.58-.92,2.19s-1.45.92-2.48.92c-1.75,0-3.18-1.07-4.29-3.21-.84-1.3-1.75-2.27-2.73-2.92-.97-.65-2.37-.97-4.19-.97-3.64,0-6.48,1.41-8.52,4.24-2.05,2.83-3.07,6.61-3.07,11.35,0,5.46,1.36,9.94,4.09,13.44s6.82,5.26,12.27,5.26c3.96,0,7.27-1.07,9.94-3.21h.1c.19,0,.37.1.54.29.16.19.18.36.05.49-2.27,2.01-4.56,3.49-6.87,4.43-2.31.94-4.82,1.41-7.55,1.41-4.22,0-7.76-.92-10.62-2.78Z"/>
        <path class="cls-1" d="M664.16,69.11c-2.89-1.85-5.11-4.35-6.67-7.5-1.56-3.15-2.34-6.58-2.34-10.28,0-4.22,1.02-7.81,3.07-10.76,2.04-2.95,4.67-5.16,7.89-6.62s6.48-2.19,9.79-2.19c3.83,0,7.17.94,10.03,2.82,2.86,1.88,5.05,4.37,6.58,7.45,1.52,3.09,2.29,6.35,2.29,9.79,0,4.03-.94,7.55-2.83,10.57-1.88,3.02-4.4,5.36-7.55,7.01-3.15,1.66-6.58,2.48-10.28,2.48s-7.1-.93-9.98-2.78ZM685.25,66.24c1.95-2.53,2.92-6.43,2.92-11.69,0-4.03-.67-7.63-2-10.81-1.33-3.18-3.17-5.66-5.5-7.45-2.34-1.79-5-2.68-7.99-2.68-3.51,0-6.22,1.27-8.13,3.8-1.92,2.53-2.87,6.17-2.87,10.91,0,3.96.65,7.6,1.95,10.91,1.3,3.31,3.12,5.94,5.45,7.89,2.34,1.95,4.97,2.92,7.89,2.92,3.57,0,6.33-1.27,8.28-3.8Z"/>
        <path class="cls-1" d="M710.38,44.37c1.49,1.33,3.67,2.74,6.53,4.24,2.27,1.17,4.04,2.18,5.31,3.02,1.27.84,2.35,1.95,3.26,3.31.91,1.36,1.36,3.02,1.36,4.97,0,3.31-1.23,6.1-3.7,8.38-2.47,2.27-5.81,3.41-10.03,3.41-3.44,0-6.56-.97-9.35-2.92-.39-.26-.58-.65-.58-1.17l-.19-7.6c0-.2.18-.31.54-.34.36-.03.57.05.63.24,1.23,3.25,2.84,5.71,4.82,7.4,1.98,1.69,4.27,2.53,6.87,2.53,2.14,0,3.77-.52,4.87-1.56,1.1-1.04,1.59-2.56,1.46-4.58-.07-2.47-.83-4.37-2.29-5.7-1.46-1.33-3.65-2.71-6.57-4.14-2.14-1.04-3.85-1.98-5.11-2.83-1.27-.84-2.34-1.95-3.21-3.31-.88-1.36-1.31-3.05-1.31-5.07,0-3.51,1.31-6.19,3.95-8.04,2.63-1.85,5.73-2.78,9.3-2.78,2.6,0,4.97.49,7.11,1.46.39.13.63.28.73.44.1.16.15.38.15.63,0,1.3-.03,2.31-.1,3.02l-.1,4.09c0,.13-.2.2-.58.2s-.58-.06-.58-.2c0-1.36-.52-2.64-1.56-3.85-1.04-1.2-2.34-2.16-3.9-2.87s-3.12-1.07-4.68-1.07-2.91.44-3.85,1.32-1.41,2.19-1.41,3.94c0,2.27.75,4.08,2.24,5.41Z"/>
      </g>
      <g>
        <path class="cls-1" d="M286.27,93.71c0,8.11-5.08,13.23-12.21,13.23s-12.21-5.12-12.21-13.23,5.12-13.23,12.21-13.23,12.21,5.12,12.21,13.23ZM282.64,93.71c0-6.18-3.54-10.08-8.59-10.08s-8.58,3.9-8.58,10.08,3.58,10.08,8.58,10.08,8.59-3.9,8.59-10.08Z"/>
        <path class="cls-1" d="M308.68,78.9v27.8l-2.56.12c-.2-1.3-.39-3.58-.35-4.33h-.12c-1.06,2.48-3.39,4.45-6.97,4.45-5.24,0-8.86-3.82-8.86-9.57s3.62-9.49,9.06-9.49c3.03,0,5.12,1.34,6.34,3.15v-12.13h3.47ZM305.21,97.76v-.75c0-2.8-1.85-6.22-6.14-6.22-3.47,0-5.71,2.64-5.71,6.58s2.28,6.66,5.95,6.66c3.94,0,5.91-3.51,5.91-6.26Z"/>
        <path class="cls-1" d="M332.19,97.49c0,5.63-3.82,9.45-9.57,9.45s-9.57-3.82-9.57-9.45,3.82-9.61,9.57-9.61,9.57,3.98,9.57,9.61ZM328.65,97.49c0-3.86-2.4-6.69-6.03-6.69s-6.03,2.83-6.03,6.69,2.4,6.54,6.03,6.54,6.03-2.68,6.03-6.54Z"/>
        <path class="cls-1" d="M353.46,95.32v11.38h-3.5v-11.38c0-2.72-1.54-4.53-4.33-4.53-3.86,0-5.59,3.5-5.59,6.18v9.73h-3.47v-18.59l2.44-.12c.32,1.42.47,3.51.47,4.33h.12c.98-2.32,3.07-4.45,6.62-4.45,4.45,0,7.25,2.99,7.25,7.44Z"/>
        <path class="cls-1" d="M371.27,105.72s-1.85,1.22-4.88,1.22c-4.8,0-6.73-2.56-6.73-7.33v-8.7h-2.95v-2.8h2.95v-5.51l3.5-.2v5.71h7.21v2.8h-7.21v8.59c0,2.99,1.06,4.49,3.58,4.49,2.17,0,3.43-1.06,3.43-1.06l1.1,2.8Z"/>
        <path class="cls-1" d="M392.07,97.49c0,5.63-3.82,9.45-9.57,9.45s-9.57-3.82-9.57-9.45,3.82-9.61,9.57-9.61,9.57,3.98,9.57,9.61ZM388.52,97.49c0-3.86-2.4-6.69-6.03-6.69s-6.03,2.83-6.03,6.69,2.4,6.54,6.03,6.54,6.03-2.68,6.03-6.54ZM380.05,85.32l2.25-6.1h4.49l-3.58,5.91-3.15.2Z"/>
        <path class="cls-1" d="M396.48,78.9h3.47v27.8h-3.47v-27.8Z"/>
        <path class="cls-1" d="M423.5,97.49c0,5.63-3.82,9.45-9.57,9.45s-9.57-3.82-9.57-9.45,3.82-9.61,9.57-9.61,9.57,3.98,9.57,9.61ZM419.95,97.49c0-3.86-2.4-6.69-6.03-6.69s-6.03,2.83-6.03,6.69,2.4,6.54,6.03,6.54,6.03-2.68,6.03-6.54Z"/>
        <path class="cls-1" d="M445.24,109.14c0,3.19-2.6,5.79-9.69,5.79-6.7,0-9.77-1.97-9.77-5.12,0-1.81,1.06-3.19,3.15-3.94-1.1-.63-1.81-1.61-1.81-3.15s1.1-2.6,2.44-3.11c-1.42-1.18-2.21-2.88-2.21-4.92,0-4.06,3.15-6.77,7.92-6.77,2.21,0,4.1.59,5.47,1.61,1.34-.63,1.93-2.17,1.93-4.45l2.95.63c0,3.54-2.36,4.92-3.58,5.12.79,1.06,1.22,2.36,1.22,3.86,0,4.06-3.19,6.77-7.96,6.77-1.22,0-2.36-.2-3.35-.51-1.02.16-1.69.59-1.69,1.34,0,1.3,1.5,1.61,4.06,1.61h3.86c4.41,0,7.05,1.81,7.05,5.24ZM441.81,109.14c0-1.89-1.5-2.28-4.29-2.28h-4.13c-3.27,0-4.17,1.1-4.17,2.44,0,1.89,1.81,2.72,6.34,2.72s6.26-.87,6.26-2.88ZM430.86,94.69c0,2.36,1.73,3.9,4.41,3.9s4.49-1.54,4.49-3.9-1.77-3.9-4.45-3.9-4.45,1.54-4.45,3.9Z"/>
        <path class="cls-1" d="M466.43,97.49c0,5.63-3.82,9.45-9.57,9.45s-9.57-3.82-9.57-9.45,3.82-9.61,9.57-9.61,9.57,3.98,9.57,9.61ZM462.88,97.49c0-3.86-2.4-6.69-6.03-6.69s-6.03,2.83-6.03,6.69,2.4,6.54,6.03,6.54,6.03-2.68,6.03-6.54Z"/>
      </g>
    </g>
  </g>
</svg>